<svg width="8" height="8" viewBox="0 0 8 8" fill="none" xmlns="http://www.w3.org/2000/svg">
<path d="M4.55357 3.33036C4.51805 3.33036 4.48399 3.31625 4.45887 3.29113C4.43375 3.26601 4.41964 3.23195 4.41964 3.19643V0.25H3.08036V3.19643C3.08036 3.23195 3.06625 3.26601 3.04113 3.29113C3.01601 3.31625 2.98195 3.33036 2.94643 3.33036H0V4.66964H2.94643C2.98195 4.66964 3.01601 4.68375 3.04113 4.70887C3.06625 4.73399 3.08036 4.76805 3.08036 4.80357V7.75H4.41964V4.80357C4.41964 4.76805 4.43375 4.73399 4.45887 4.70887C4.48399 4.68375 4.51805 4.66964 4.55357 4.66964H7.5V3.33036H4.55357Z" fill="#12C64B"/>
</svg>
