<svg width="13" height="15" viewBox="0 0 13 15" fill="none" xmlns="http://www.w3.org/2000/svg">
<path fill-rule="evenodd" clip-rule="evenodd" d="M6.49997 0.9375C8.21992 0.968581 9.85892 1.67365 11.0643 2.90097C12.2696 4.1283 12.945 5.77977 12.945 7.5C12.945 9.22023 12.2696 10.8717 11.0643 12.099C9.85892 13.3264 8.21992 14.0314 6.49997 14.0625C4.78003 14.0314 3.14102 13.3264 1.93568 12.099C0.730332 10.8717 0.0549927 9.22023 0.0549927 7.5C0.0549927 5.77977 0.730332 4.1283 1.93568 2.90097C3.14102 1.67365 4.78003 0.968581 6.49997 0.9375ZM5.13712 9.63179L3.52997 8.02321C3.39842 7.89121 3.32455 7.71244 3.32455 7.52607C3.32455 7.33971 3.39842 7.16094 3.52997 7.02893C3.6622 6.89751 3.84105 6.82374 4.02747 6.82374C4.2139 6.82374 4.39275 6.89751 4.52497 7.02893L5.65712 8.1625L8.47497 5.34464C8.60698 5.21309 8.78575 5.13922 8.97212 5.13922C9.15848 5.13922 9.33725 5.21309 9.46926 5.34464C9.60064 5.47674 9.67439 5.65548 9.67439 5.84179C9.67439 6.02809 9.60064 6.20683 9.46926 6.33893L6.15355 9.65464C6.08624 9.72161 6.0061 9.77429 5.91793 9.80952C5.82976 9.84475 5.73539 9.86181 5.64046 9.85968C5.54554 9.85755 5.45203 9.83626 5.36553 9.7971C5.27904 9.75794 5.20135 9.70171 5.13712 9.63179Z" fill="#12C64B"/>
</svg>
