<svg width="30" height="30" viewBox="0 0 30 30" fill="none" xmlns="http://www.w3.org/2000/svg">
<path d="M15 30C23.2843 30 30 23.2843 30 15C30 6.71573 23.2843 0 15 0C6.71573 0 0 6.71573 0 15C0 23.2843 6.71573 30 15 30Z" fill="#12C64B"/>
<path d="M20.4187 20.5449C20.2999 20.7479 20.1054 20.8955 19.8779 20.9553C19.6503 21.0151 19.4084 20.9821 19.2051 20.8636C16.8716 19.5 14.1767 19.2818 12.3256 19.3295C11.1231 19.3603 9.92728 19.518 8.75795 19.8C8.54026 19.8385 8.31601 19.7945 8.12907 19.6765C7.94213 19.5584 7.80593 19.3749 7.74711 19.1618C7.68829 18.9487 7.71108 18.7213 7.81102 18.5241C7.91095 18.3269 8.08086 18.174 8.2875 18.0955C9.57573 17.7752 10.8947 17.5947 12.2216 17.5568C13.4915 17.5099 14.7626 17.602 16.0125 17.8313C17.4514 18.0917 18.8351 18.5967 20.1034 19.3244C20.2047 19.3834 20.2934 19.4619 20.3642 19.5553C20.435 19.6488 20.4865 19.7553 20.5159 19.8688C20.5452 19.9823 20.5517 20.1005 20.535 20.2166C20.5184 20.3326 20.4788 20.4442 20.4187 20.5449ZM22.0688 17.117C21.9762 17.2759 21.8436 17.4077 21.6842 17.4992C21.5247 17.5908 21.3441 17.6388 21.1602 17.6386C20.9737 17.6389 20.7906 17.5889 20.6301 17.4937C17.867 15.8795 14.6761 15.6187 12.4824 15.6869C11.0581 15.7229 9.6417 15.9098 8.25682 16.2443C7.9919 16.3067 7.71312 16.2639 7.47908 16.125C7.24504 15.9861 7.07395 15.7619 7.00178 15.4995C6.92961 15.2371 6.96198 14.9569 7.09208 14.7178C7.22218 14.4788 7.43988 14.2995 7.69943 14.2176C9.22555 13.8399 10.7881 13.6285 12.3597 13.5869C13.8643 13.529 15.3706 13.6382 16.8511 13.9125C18.554 14.2212 20.1914 14.8197 21.692 15.6818C21.9318 15.8226 22.1061 16.0527 22.1767 16.3217C22.2473 16.5906 22.2085 16.8766 22.0688 17.117ZM24.2045 13.3619C24.1193 13.5084 24.0059 13.6365 23.871 13.739C23.7361 13.8415 23.5823 13.9164 23.4184 13.9593C23.2545 14.0022 23.0837 14.0124 22.9159 13.9891C22.748 13.9659 22.5864 13.9097 22.4403 13.8239C15.871 9.98523 7.35 12.2676 7.26989 12.2898C7.10429 12.3422 6.92981 12.3607 6.7569 12.3441C6.58399 12.3275 6.41622 12.2761 6.26363 12.1931C6.11104 12.1101 5.97679 11.9972 5.86891 11.861C5.76103 11.7249 5.68175 11.5684 5.63583 11.4008C5.5899 11.2333 5.57827 11.0582 5.60163 10.8861C5.62499 10.714 5.68287 10.5484 5.77179 10.3991C5.86071 10.2499 5.97884 10.1202 6.1191 10.0177C6.25937 9.91526 6.41888 9.84217 6.58807 9.80284C8.45551 9.34258 10.3671 9.08484 12.2898 9.03409C14.1346 8.96533 15.9815 9.09909 17.7972 9.43295C19.8853 9.80841 21.8938 10.5383 23.7358 11.5909C23.8834 11.6759 24.0126 11.7893 24.1162 11.9246C24.2197 12.0598 24.2954 12.2142 24.339 12.3788C24.3826 12.5434 24.3931 12.7151 24.3701 12.8838C24.347 13.0525 24.2907 13.215 24.2045 13.3619Z" fill="#191414"/>
</svg>
