<svg width="11" height="11" viewBox="0 0 11 11" fill="none" xmlns="http://www.w3.org/2000/svg">
<path d="M10.0078 9.60842L7.62776 7.13308C8.2397 6.40563 8.57499 5.49035 8.57499 4.5375C8.57499 2.31126 6.76374 0.5 4.5375 0.5C2.31126 0.5 0.5 2.31126 0.5 4.5375C0.5 6.76374 2.31126 8.57499 4.5375 8.57499C5.37326 8.57499 6.1697 8.32291 6.85063 7.84438L9.24873 10.3385C9.34896 10.4426 9.48378 10.5 9.62825 10.5C9.765 10.5 9.89473 10.4479 9.99321 10.3531C10.2025 10.1517 10.2091 9.81784 10.0078 9.60842ZM4.5375 1.55326C6.18304 1.55326 7.52173 2.89195 7.52173 4.5375C7.52173 6.18304 6.18304 7.52173 4.5375 7.52173C2.89195 7.52173 1.55326 6.18304 1.55326 4.5375C1.55326 2.89195 2.89195 1.55326 4.5375 1.55326Z" fill="white"/>
</svg>
